<svg width="45" height="45" viewBox="0 0 45 45" fill="none" xmlns="http://www.w3.org/2000/svg">
<path d="M22.5 0C26.9501 0 31.3002 1.3196 35.0003 3.79193C38.7004 6.26427 41.5843 9.77829 43.2873 13.8896C44.9903 18.001 45.4358 22.525 44.5677 26.8895C43.6995 31.2541 41.5566 35.2632 38.4099 38.4099C35.2632 41.5566 31.2541 43.6995 26.8895 44.5677C22.525 45.4358 18.001 44.9903 13.8896 43.2873C9.77829 41.5843 6.26427 38.7004 3.79193 35.0003C1.3196 31.3002 0 26.9501 0 22.5C0 16.5326 2.37053 10.8097 6.5901 6.5901C10.8097 2.37053 16.5326 0 22.5 0V0Z" fill="url(#paint0_linear_1086_480)"/>
<path d="M32.63 34.2L30.25 31.82C28.8523 32.8313 27.1405 33.3126 25.4207 33.1777C23.7008 33.0429 22.0849 32.3008 20.862 31.084L19.322 29.544C21.322 28.467 21.329 28.473 22.403 29.544C22.8743 30.0164 23.4342 30.3912 24.0505 30.6469C24.6669 30.9027 25.3277 31.0343 25.995 31.0343C26.6623 31.0343 27.323 30.9027 27.9394 30.6469C28.5558 30.3912 29.1156 30.0164 29.587 29.544C32.45 26.681 30.643 21.098 27.869 22.574C17.795 27.929 18.017 28.239 16.9 27.121L15.815 26.039L15.887 25.984C16.456 26.55 16.732 26.167 27.687 20.305C28.0923 20.0826 28.5466 19.9647 29.009 19.962C32.291 19.962 35.141 26.04 31.822 30.311L34.172 32.662C34.2746 32.7629 34.3563 32.8831 34.4122 33.0157C34.4681 33.1484 34.4971 33.2908 34.4977 33.4347C34.4982 33.5786 34.4702 33.7212 34.4153 33.8543C34.3604 33.9873 34.2796 34.1081 34.1777 34.2098C34.0758 34.3114 33.9548 34.3918 33.8216 34.4464C33.6884 34.501 33.5457 34.5286 33.4018 34.5277C33.2579 34.5268 33.1156 34.4974 32.9831 34.4411C32.8506 34.3849 32.7306 34.3029 32.63 34.2ZM13.109 13.178C14.4939 11.7875 16.3744 11.004 18.337 11C19.2844 10.9991 20.2227 11.1854 21.0979 11.5482C21.9731 11.9109 22.768 12.4431 23.437 13.114L24.974 14.654C22.974 15.731 22.974 15.728 21.896 14.654C20.9433 13.7014 19.6512 13.1662 18.304 13.1662C16.9567 13.1662 15.6646 13.7014 14.712 14.654C11.848 17.517 13.658 23.1 16.432 21.625C26.506 16.269 26.284 15.96 27.4 17.078L28.484 18.161L28.413 18.216C27.84 17.65 27.568 18.032 16.613 23.894C16.2071 24.1169 15.752 24.2351 15.289 24.238C11.823 24.237 8.83696 17.452 13.109 13.178Z" fill="white"/>
<defs>
<linearGradient id="paint0_linear_1086_480" x1="8.325" y1="5.94" x2="34.29" y2="41.805" gradientUnits="userSpaceOnUse">
<stop stop-color="#00FFCF"/>
<stop offset="0.385" stop-color="#3D5DFF"/>
<stop offset="0.664" stop-color="#FF73E1"/>
<stop offset="1" stop-color="#FFD148"/>
</linearGradient>
</defs>
</svg>
