<?xml version="1.0" encoding="utf-8"?>
<!-- Generator: Adobe Illustrator 26.3.1, SVG Export Plug-In . SVG Version: 6.00 Build 0)  -->
<svg version="1.1" id="Layer_1" xmlns="http://www.w3.org/2000/svg" xmlns:xlink="http://www.w3.org/1999/xlink" x="0px" y="0px"
	 viewBox="0 0 294.2 315.8" style="enable-background:new 0 0 294.2 315.8;" xml:space="preserve">
<style type="text/css">
	.st0{fill:#FF4C3B;}
	.st1{fill:#253243;}
	.st2{display:none;fill:#FFFFFF;stroke:#000000;stroke-miterlimit:10;}
</style>
<g id="Layer_2_00000149375350132493153950000005680384690540904600_">
	<g id="Layer_1-2">
		<g id="Red-Logo">
			<path class="st0" d="M147.1,11.4C66.2,11.4,0.7,77,0.7,157.9c0,80.9,65.6,146.5,146.5,146.5c80.9,0,146.5-65.6,146.5-146.5
				C293.6,77,228,11.4,147.1,11.4z M158.4,173.2c-13,5.1-27.3,6.3-40.9,3.4c6.9-40.9,34.5-59.7,52.7-60c7.5-0.2,17,2.7,19,16.5
				C190.9,144.1,182.4,163.8,158.4,173.2z"/>
			<path class="st1" d="M208.7,80.6L105.2,94.4V72.6l81.4-10.9c-15-9.3-32.3-14.2-49.9-14.1h-34c-15.5,0-28,12.5-28,28v77.3
				c6.6,6.4,14,11.8,22.1,16.1c9.6-47.7,43.7-73.6,73-74c21.5-0.3,37.5,13.4,40.7,34.9c3.2,21.7-11,50.4-44.4,63.4
				c-12.8,5-26.5,7.2-40.2,6.2c-3.1-0.2-6.2-0.6-9.2-1.1c1.6,11.1,6.4,20.3,14,26.6c2.7,2.2,5.6,4.1,8.8,5.5
				c7.6,3.4,15.9,4.6,24.2,3.4c50.4-14.9,79.1-67.9,64.2-118.3C224.1,102.8,217.6,90.8,208.7,80.6L208.7,80.6z"/>
			<path class="st1" d="M94.6,191.8c-1.4-0.6-2.8-1.2-4.2-1.9c-5.5-2.6-10.8-5.7-15.7-9.2v59.4c-0.1,15.5,12.3,28.1,27.8,28.2
				c12,0.1,22.7-7.5,26.7-18.8c-6-2.9-11.5-6.8-16.2-11.6C101.6,226.4,95.1,210.2,94.6,191.8L94.6,191.8z"/>
		</g>
	</g>
</g>
<path class="st2" d="M293.6,157.9c0,80.9-65.6,146.5-146.5,146.5c-80.9,0-146.5-65.6-146.5-146.5C0.7,77,66.2,11.4,147.1,11.4
	C228,11.4,293.6,77,293.6,157.9z"/>
</svg>
