<svg width="36" height="36" viewBox="0 0 36 36" fill="none" xmlns="http://www.w3.org/2000/svg">
<circle cx="18" cy="18" r="18" fill="#262E41"/>
<path d="M24.4556 24.4976C24.2919 24.664 24.2002 24.8881 24.2002 25.1215C24.2002 25.355 24.2919 25.579 24.4556 25.7455L26.5316 27.8215C26.7003 27.9701 26.9193 28.0488 27.144 28.0417C27.3687 28.0346 27.5823 27.9422 27.7412 27.7832C27.9002 27.6243 27.9926 27.4107 27.9997 27.186C28.0068 26.9613 27.9281 26.7423 27.7795 26.5736L25.7035 24.4976C25.5371 24.3339 25.313 24.2422 25.0795 24.2422C24.8461 24.2422 24.622 24.3339 24.4556 24.4976Z" fill="url(#paint0_linear_345_539)"/>
<path d="M22.4409 16.5515C13.6561 21.2699 13.4337 21.5763 12.9889 21.1251L12.9277 21.1641L13.8007 22.0387C14.6958 22.9356 14.5235 22.6905 22.6188 18.3787C24.8428 17.1865 26.2995 21.6822 23.9977 23.9885C23.6191 24.3688 23.1693 24.6706 22.6742 24.8765C22.179 25.0824 21.6482 25.1884 21.112 25.1884C20.5759 25.1884 20.0451 25.0824 19.5499 24.8765C19.0547 24.6706 18.605 24.3688 18.2264 23.9885C17.359 23.125 17.359 23.1195 15.7466 23.9885L16.9754 25.2141C18.0743 26.3142 19.5642 26.9322 21.1176 26.9322C22.671 26.9322 24.1609 26.3142 25.2598 25.2141C28.7125 21.7379 26.3329 16.3008 23.5529 16.3008C23.1793 16.3023 22.8122 16.3981 22.4854 16.5793" fill="url(#paint1_linear_345_539)"/>
<path d="M15.0033 9.00014C14.2096 9.00158 13.424 9.15814 12.6915 9.46084C11.959 9.76354 11.294 10.2064 10.7346 10.7641C6.77683 14.6841 10.3954 21.1353 13.6012 19.4385C22.5514 14.6897 22.7775 14.3985 23.2412 14.8409L23.3033 14.7961L22.4157 13.9169C21.5054 13.0153 21.6807 13.2673 13.4485 17.6017C11.1869 18.7945 9.70558 14.2753 12.0463 11.9569C12.4313 11.5746 12.8887 11.2713 13.3922 11.0643C13.8957 10.8573 14.4355 10.7508 14.9807 10.7508C15.5259 10.7508 16.0657 10.8573 16.5692 11.0643C17.0728 11.2713 17.5301 11.5746 17.9151 11.9569C18.7971 12.8249 18.7971 12.8305 20.4368 11.9569L19.1873 10.7081C18.6388 10.1699 17.9882 9.74441 17.2731 9.45609C16.558 9.16778 15.7811 8.99434 15.009 9.00014" fill="url(#paint2_linear_345_539)"/>
<path d="M23.2409 14.8421C22.7773 14.3997 22.5511 14.6909 13.6009 19.4396L13.4482 17.6028C21.6804 13.2685 21.5051 13.0165 22.4154 13.9181L23.3031 14.7973L23.2409 14.8421Z" fill="url(#paint3_linear_345_539)"/>
<path d="M12.9905 21.07C13.4542 21.5124 13.6803 21.2212 22.6305 16.4725L22.7832 18.3093C14.551 22.6436 14.7263 22.8956 13.816 21.994L12.9284 21.1148L12.9905 21.07Z" fill="url(#paint4_linear_345_539)"/>
<path d="M10.7383 10.7641C11.2977 10.2064 11.9627 9.76354 12.6952 9.46084C13.3422 9.19347 14.0306 9.04012 14.7295 9.00697C14.8218 9.00259 14.9144 9.00031 15.007 9.00014L15.0127 9.00014C15.7848 8.99434 16.5617 9.16778 17.2768 9.45609C17.9919 9.74441 18.6425 10.1699 19.1909 10.7081L20.4405 11.9569C18.8045 12.8286 18.8008 12.8249 17.9247 11.9628L17.9188 11.9569C17.5338 11.5746 17.0765 11.2713 16.5729 11.0643C16.0694 10.8573 15.5296 10.7508 14.9844 10.7508C14.4392 10.7508 13.8994 10.8573 13.3959 11.0643C12.8923 11.2713 12.435 11.5746 12.05 11.9569L10.7383 10.7641Z" fill="#9BF7C3"/>
<defs>
<linearGradient id="paint0_linear_345_539" x1="25.0114" y1="24.8613" x2="27.6586" y2="27.722" gradientUnits="userSpaceOnUse">
<stop offset="0.09375" stop-color="#EBA7AC"/>
<stop offset="0.536458" stop-color="#F3D285"/>
</linearGradient>
<linearGradient id="paint1_linear_345_539" x1="23.6019" y1="15.7884" x2="19.9513" y2="26.9322" gradientUnits="userSpaceOnUse">
<stop offset="0.171183" stop-color="#FF7AD9"/>
<stop offset="0.800177" stop-color="#F3D583"/>
</linearGradient>
<linearGradient id="paint2_linear_345_539" x1="6.67887" y1="11.111" x2="14.637" y2="19.0368" gradientUnits="userSpaceOnUse">
<stop offset="0.38513" stop-color="#9BF6C3"/>
<stop offset="0.804178" stop-color="#6850DD"/>
</linearGradient>
<linearGradient id="paint3_linear_345_539" x1="22.8578" y1="13.8619" x2="15.4469" y2="17.3698" gradientUnits="userSpaceOnUse">
<stop stop-color="#FF7AD9"/>
<stop offset="0.463542" stop-color="#684FDC"/>
</linearGradient>
<linearGradient id="paint4_linear_345_539" x1="14.3587" y1="21.6164" x2="20.7845" y2="18.5423" gradientUnits="userSpaceOnUse">
<stop offset="0.246364" stop-color="#684FDC"/>
<stop offset="0.96875" stop-color="#FF7AD9"/>
</linearGradient>
</defs>
</svg>
