<svg width="128" height="128" viewBox="0 0 128 128" fill="none" xmlns="http://www.w3.org/2000/svg">
<path d="M91.2771 90.3163C90.4587 91.1465 90 92.2644 90 93.4289C90 94.5934 90.4587 95.7113 91.2771 96.5415V96.5415L101.657 106.898C102.501 107.64 103.595 108.033 104.719 107.997C105.843 107.962 106.91 107.501 107.705 106.708C108.5 105.914 108.962 104.849 108.998 103.728C109.033 102.607 108.639 101.515 107.896 100.673V100.673L97.5163 90.3163C96.6843 89.4996 95.5639 89.042 94.3967 89.042C93.2296 89.042 92.1092 89.4996 91.2771 90.3163Z" fill="url(#paint0_linear_277_27)"/>
<path d="M81.2044 50.6754C37.2805 74.215 36.1685 75.7435 33.9445 73.4924L33.6387 73.687L38.0033 78.0502C42.479 82.5247 41.6173 81.3019 82.0939 59.7911C93.2139 53.8437 100.497 76.2716 88.9883 87.7773C87.0954 89.6747 84.8466 91.1802 82.3708 92.2073C79.895 93.2345 77.2407 93.7632 74.5602 93.7632C71.8796 93.7632 69.2254 93.2345 66.7495 92.2073C64.2737 91.1802 62.0249 89.6747 60.132 87.7773V87.7773C55.7952 83.4696 55.7952 83.4418 47.7332 87.7773L53.877 93.8915C59.3714 99.38 66.8208 102.463 74.588 102.463C82.3551 102.463 89.8045 99.38 95.2989 93.8915V93.8915C112.563 76.5495 100.664 49.4248 86.7643 49.4248C84.8966 49.4325 83.061 49.9104 81.4268 50.8144" fill="url(#paint1_linear_277_27)"/>
<path d="M44.0167 13.0007C40.0481 13.0079 36.12 13.7889 32.4575 15.299C28.7949 16.8091 25.4699 19.0186 22.673 21.8009C2.88414 41.3569 20.9768 73.5405 37.0058 65.0755C81.7568 41.3848 82.8876 39.9321 85.2057 42.1391L85.5167 41.9156L81.0783 37.5295C76.5269 33.0316 77.4033 34.2888 36.2425 55.9121C24.9346 61.8627 17.5279 39.3175 29.2316 27.7515C31.1565 25.8442 33.4433 24.3309 35.9609 23.2984C38.4786 22.2658 41.1777 21.7343 43.9036 21.7343C46.6294 21.7343 49.3285 22.2658 51.8462 23.2984C54.3639 24.3309 56.6507 25.8442 58.5756 27.7515C62.9857 32.0818 62.9857 32.1097 71.1839 27.7515L64.9363 21.5215C62.1938 18.8365 58.9412 16.7137 55.3656 15.2754C51.79 13.837 47.9056 12.9718 44.0452 13.0007" fill="url(#paint2_linear_277_27)"/>
<path d="M85.2025 42.1415C82.8844 39.9345 81.7536 41.3872 37.0025 65.0779L36.2393 55.9145C77.4001 34.2912 76.5237 33.034 81.0751 37.5319L85.5135 41.918L85.2025 42.1415Z" fill="url(#paint3_linear_277_27)"/>
<path d="M33.9518 73.2159C36.2699 75.4229 37.4007 73.9702 82.1518 50.2795L82.915 59.4429C41.7542 81.0662 42.6306 82.3234 38.0792 77.8255L33.6408 73.4394L33.9518 73.2159Z" fill="url(#paint4_linear_277_27)"/>
<path d="M22.6914 21.8009C25.4883 19.0186 28.8134 16.8091 32.4759 15.299C35.711 13.9652 39.1532 13.2002 42.6474 13.0348C43.1092 13.0129 43.5719 13.0015 44.0351 13.0007L44.0636 13.0007C47.924 12.9718 51.8084 13.837 55.384 15.2754C58.9596 16.7137 62.2122 18.8365 64.9547 21.5215L71.2023 27.7515C63.0225 32.0999 63.0041 32.0819 58.6237 27.7806L58.594 27.7515C56.6691 25.8442 54.3823 24.3309 51.8646 23.2984C49.347 22.2658 46.6479 21.7343 43.922 21.7343C41.1961 21.7343 38.4971 22.2658 35.9794 23.2984C33.4617 24.3309 31.1749 25.8442 29.25 27.7515L22.6914 21.8009Z" fill="#9BF7C3"/>
<defs>
<linearGradient id="paint0_linear_277_27" x1="94.0562" y1="92.1306" x2="107.26" y2="106.431" gradientUnits="userSpaceOnUse">
<stop offset="0.09375" stop-color="#EBA7AC"/>
<stop offset="0.536458" stop-color="#F3D285"/>
</linearGradient>
<linearGradient id="paint1_linear_277_27" x1="87.0094" y1="46.8687" x2="68.8303" y2="102.487" gradientUnits="userSpaceOnUse">
<stop offset="0.171183" stop-color="#FF7AD9"/>
<stop offset="0.800177" stop-color="#F3D583"/>
</linearGradient>
<linearGradient id="paint2_linear_277_27" x1="2.39438" y1="23.5313" x2="42.0963" y2="63.1605" gradientUnits="userSpaceOnUse">
<stop offset="0.38513" stop-color="#9BF6C3"/>
<stop offset="0.804178" stop-color="#6850DD"/>
</linearGradient>
<linearGradient id="paint3_linear_277_27" x1="83.2869" y1="37.2518" x2="46.2631" y2="54.8163" gradientUnits="userSpaceOnUse">
<stop stop-color="#FF7AD9"/>
<stop offset="0.463542" stop-color="#684FDC"/>
</linearGradient>
<linearGradient id="paint4_linear_277_27" x1="40.7925" y1="75.9416" x2="72.8947" y2="60.5493" gradientUnits="userSpaceOnUse">
<stop offset="0.246364" stop-color="#684FDC"/>
<stop offset="0.96875" stop-color="#FF7AD9"/>
</linearGradient>
</defs>
</svg>
