<?xml version="1.0" encoding="utf-8"?>
<!-- Generator: Adobe Illustrator 19.2.1, SVG Export Plug-In . SVG Version: 6.00 Build 0)  -->
<svg version="1.1" xmlns="http://www.w3.org/2000/svg" xmlns:xlink="http://www.w3.org/1999/xlink" x="0px" y="0px"
	 viewBox="0 0 2200 1500" style="enable-background:new 0 0 2200 1500;" xml:space="preserve">
<style type="text/css">
	.st0{fill-rule:evenodd;clip-rule:evenodd;fill:#BF2635;}
	.st1{fill-rule:evenodd;clip-rule:evenodd;fill:url(#SVGID_1_);}
	.st2{fill-rule:evenodd;clip-rule:evenodd;fill:url(#SVGID_2_);}
	.st3{fill-rule:evenodd;clip-rule:evenodd;fill:url(#SVGID_3_);}
	.st4{fill-rule:evenodd;clip-rule:evenodd;fill:url(#SVGID_4_);}
	.st5{fill-rule:evenodd;clip-rule:evenodd;fill:#B6E1ED;}
	.st6{fill:#BE2635;}
	.st7{display:none;fill:#BE2635;}
	.st8{fill:#E66125;}
	.st9{fill-rule:evenodd;clip-rule:evenodd;fill:url(#SVGID_5_);}
	.st10{fill-rule:evenodd;clip-rule:evenodd;fill:url(#SVGID_6_);}
	.st11{fill-rule:evenodd;clip-rule:evenodd;fill:url(#SVGID_7_);}
	.st12{fill-rule:evenodd;clip-rule:evenodd;fill:url(#SVGID_8_);}
</style>
<g id="ROBINOS_TRANSPARENT_WITH_TEXT__x2B__Group_1__x2B__ROBINOS__x2B__ROBINOS_TRANSPARENT_WITH_TEXT_copy__x2B__Tokenized_Prediction_Platform__x2B__Hue_x2F_Saturation_1_xA0_Image_1_">
	<g>
		<path class="st0" d="M1044.2,541c19.5-30.2,68.1-55.1,104.3-70.5c-15.1-8.1-35-12.1-62.2-10.1c109.6-52.2,209.9-25,240,44.1
			c33.6,4.9,53.6,25.2,62.1,58.2c-150.8-80.2-244.6,113-25.3,139.8c-1.6,0.5-3.1,1-4.7,1.5c-2.3,0.7-4.6,1.4-6.9,2.1
			c-0.5,0.1-0.9,0.3-1.4,0.4c-0.4,0.1-0.8,0.2-1.1,0.3c-0.9,0.3-1.7,0.5-2.6,0.7c-0.7,0.2-1.4,0.4-2.1,0.6l0,0l0,0
			c-1.1,0.3-2.2,0.6-3.3,0.9c-0.4,0.1-0.9,0.2-1.4,0.4c-1.5,0.4-2.9,0.8-4.3,1.1c-0.1,0-0.2,0-0.3,0.1c0,0,0,0,0,0
			c-0.5,0.1-1,0.3-1.5,0.4c-0.9,0.2-1.8,0.4-2.6,0.7c-0.2,0-0.4,0.1-0.5,0.1c-1.6,0.4-3.1,0.8-4.7,1.1c-3.1,0.7-6.2,1.4-9.3,2.1
			c-1.6,0.3-3.1,0.6-4.7,1c-3.9,0.8-7.8,1.5-11.7,2.2c-2.1,0.4-4.2,0.7-6.3,1.1c-0.1,0-0.2,0-0.3,0.1c-0.1,0-0.1,0-0.2,0
			c0,0,0,0,0,0c-1.5,0.2-3.1,0.5-4.6,0.7c-1.3,0.2-2.6,0.4-3.9,0.6c-0.4,0-0.7,0.1-1.1,0.2c-0.8,0.1-1.5,0.2-2.3,0.3
			c-0.7,0.1-1.3,0.2-2,0.2c-3.1,0.4-6.1,0.8-9.2,1.1c-0.7,0.1-1.4,0.1-2.1,0.2c-1.4,0.1-2.9,0.3-4.3,0.4c-0.9,0.1-1.8,0.2-2.7,0.2
			c-1.1,0.1-2.2,0.2-3.3,0.3c-1,0.1-1.9,0.1-2.9,0.2c-2.5,0.2-5,0.4-7.5,0.5c-0.2,0-0.4,0-0.6,0c-2.5,0.1-4.9,0.3-7.4,0.4
			c-3.4,0.1-6.7,0.2-10.1,0.2c-0.6,0-1.1,0-1.7,0c-2,0-3.9,0-5.9,0l-1.4,0c-8.5-0.1-17-0.4-25.3-1c-0.1,0-0.2,0-0.3,0
			c-2.7-0.2-5.3-0.4-8-0.7c-0.3,0-0.6-0.1-0.9-0.1c-2.4-0.2-4.9-0.5-7.3-0.8c-0.5-0.1-0.9-0.1-1.4-0.2c-2.3-0.3-4.5-0.5-6.8-0.8
			c-0.6-0.1-1.2-0.2-1.7-0.3c-2.1-0.3-4.3-0.6-6.4-0.9c-0.7-0.1-1.4-0.2-2.1-0.4c-2-0.3-4.1-0.7-6.1-1c-0.8-0.1-1.5-0.3-2.3-0.4
			c-1.9-0.4-3.8-0.7-5.7-1.1c-0.8-0.2-1.6-0.3-2.4-0.5c-1.9-0.4-3.7-0.8-5.6-1.2c-0.8-0.2-1.6-0.4-2.5-0.6c-1.8-0.4-3.7-0.8-5.5-1.3
			c-0.8-0.2-1.7-0.4-2.5-0.6c-1.8-0.5-3.6-0.9-5.4-1.4c-0.8-0.2-1.6-0.4-2.3-0.7c-1.8-0.5-3.6-1-5.4-1.5c-0.8-0.2-1.6-0.5-2.4-0.7
			c-1.8-0.5-3.6-1.1-5.3-1.6c-0.9-0.3-1.7-0.6-2.5-0.8c-1.7-0.6-3.4-1.1-5.1-1.7c-2.5-0.9-5-1.8-7.5-2.7c-2.7-1-5.3-2-7.9-3
			c-3.9-1.6-7.9-3.2-11.7-4.9c-6.4-2.8-12.8-5.8-19-9c-1.3-0.7-2.5-1.3-3.7-2c-2.5-1.3-4.9-2.6-7.3-4c-1.2-0.7-2.4-1.4-3.6-2.1
			c-2.4-1.4-4.8-2.8-7.2-4.3c0,0,0,0,0,0c-3.5-2.2-7.1-4.4-10.5-6.7l0,0c-2.3-1.5-4.6-3.1-6.9-4.7l0,0c-18.2-12.8-35-27.3-50.3-43.6
			c-74-78.9-110.9-198-83.2-345.8c0.1-0.7,0.3-1.4,0.4-2.1c-5.6,4.6-11,9.2-16.1,13.9c-141.7,128.6-124.8,300.2-24,407.4
			c-47.8-12.8-83.3-44.4-109.2-90.8c10,207.4,144.6,287.3,283.3,262.9c-31.2,23.4-65.2,39.3-103.9,43.3
			c109.1,69.7,219.4,55.3,307.4-19.1c-3,27.7-19.9,58.1-52.5,82.9c49.9-6.8,99.2-23.8,145.1-51.6c80.1-48.6,136.7-122.2,165.8-205.3
			c9.7-33.4,15.2-68.6,15.9-105c0.2-8.3,0.6-16.6-0.2-24.7C1461.4,265.5,1068.7,292,1044.2,541"/>
		
			<linearGradient id="SVGID_1_" gradientUnits="userSpaceOnUse" x1="725.9128" y1="687.357" x2="946.2985" y2="687.357" gradientTransform="matrix(0.9932 2.057228e-002 -2.066432e-002 0.9977 22.8352 -20.5133)">
			<stop  offset="0" style="stop-color:#DC6733"/>
			<stop  offset="1" style="stop-color:#FBB71C"/>
		</linearGradient>
		<path class="st1" d="M731.3,600c45.3,136.6,126.2,163.7,215.6,164.9c-41.2-17.7-77.3-43.2-106.3-74.2
			C792.7,678,757.2,646.3,731.3,600"/>
		
			<linearGradient id="SVGID_2_" gradientUnits="userSpaceOnUse" x1="912.8123" y1="866.6417" x2="1124.8289" y2="866.6417" gradientTransform="matrix(0.9932 2.057228e-002 -2.066432e-002 0.9977 22.8352 -20.5133)">
			<stop  offset="0" style="stop-color:#DC6733"/>
			<stop  offset="1" style="stop-color:#FBB71C"/>
		</linearGradient>
		<path class="st2" d="M910.7,906.2c80.7,11.7,150.8-19.1,212.4-84c-34.9,20.5-71.9,34.2-108.5,40.7
			C983.4,886.3,949.4,902.1,910.7,906.2"/>
		
			<linearGradient id="SVGID_3_" gradientUnits="userSpaceOnUse" x1="1170.7117" y1="885.1594" x2="1292.2338" y2="885.1594" gradientTransform="matrix(0.9932 2.057228e-002 -2.066432e-002 0.9977 22.8352 -20.5133)">
			<stop  offset="0" style="stop-color:#DC6733"/>
			<stop  offset="1" style="stop-color:#FBB71C"/>
		</linearGradient>
		<path class="st3" d="M1165.6,970c70-37.6,110.4-91.5,124.1-164.1c-21.5,31.9-45.7,59.1-71.7,81.2
			C1215.1,914.8,1198.2,945.2,1165.6,970"/>
		
			<linearGradient id="SVGID_4_" gradientUnits="userSpaceOnUse" x1="804.874" y1="507.9898" x2="1363.8848" y2="507.9898" gradientTransform="matrix(0.9932 2.057228e-002 -2.066432e-002 0.9977 22.8352 -20.5133)">
			<stop  offset="0" style="stop-color:#DC6733"/>
			<stop  offset="1" style="stop-color:#FBB71C"/>
		</linearGradient>
		<path class="st4" d="M880.7,269.4c-237.5,351.7,201.3,573.4,482.4,433.1C1083,792,816.8,604.1,880.7,269.4"/>
		<path class="st5" d="M1170.1,568.4c18.3-3.9,34.4-4.5,48-0.8c-47.6,42.5-54.5,110.8-10.6,156.8c49.9,2.1,102.5-4.9,155.5-21.9
			c-219.2-26.9-125.5-220,25.3-139.8C1329.6,512.5,1260.9,499.8,1170.1,568.4"/>
		<path class="st0" d="M1255,489.7l31,19.4l19.2-9.7C1290.8,490.5,1273.6,488.6,1255,489.7"/>
	</g>
	<g>
		<path class="st6" d="M753.7,1126.3h-25.5v-111.9h43.9c4.2,0,8.1,0.5,11.7,1.6c3.6,1.1,6.8,2.6,9.7,4.4c2.9,1.8,5.4,4,7.7,6.6
			c2.2,2.5,4.1,5.2,5.5,8.1c1.5,2.9,2.6,5.9,3.4,8.9c0.8,3.1,1.1,6.1,1.1,9.1c0,3-0.3,5.9-1,8.9c-0.7,2.9-1.7,5.8-3.1,8.6
			s-3.2,5.5-5.5,8.1c-2.2,2.6-4.9,5-8.1,7.2l29.8,40.3H802h-0.5c-0.5,0-1.3-0.1-2.4-0.2c-1.1-0.2-2.4-0.5-3.8-1.1
			c-1.4-0.6-2.9-1.4-4.5-2.6c-1.6-1.1-3-2.7-4.5-4.8l-18.7-25.4h-14V1126.3z M773.4,1066.5c1.6,0,3.1-0.4,4.5-1.2
			c1.5-0.8,2.7-1.8,3.9-3c1.1-1.2,2-2.7,2.7-4.3c0.7-1.6,1-3.2,1-4.8c0-1.6-0.3-3.2-1-4.8c-0.7-1.6-1.6-3-2.7-4.3
			c-1.1-1.2-2.4-2.3-3.9-3c-1.5-0.8-3-1.2-4.5-1.2h-19.7v26.6H773.4z"/>
		<path class="st7" d="M827.1,1070.3c0-5.3,0.7-10.3,2.1-15.2c1.4-4.9,3.3-9.4,5.8-13.6s5.5-8.1,9-11.5c3.5-3.5,7.4-6.4,11.6-8.9
			c4.3-2.5,8.8-4.4,13.7-5.7c4.9-1.4,10-2,15.2-2c5.3,0,10.3,0.7,15.2,2c4.9,1.4,9.5,3.3,13.7,5.7c4.3,2.5,8.1,5.4,11.6,8.9
			c3.5,3.5,6.5,7.3,9,11.5c2.5,4.2,4.4,8.8,5.8,13.6c1.4,4.9,2.1,9.9,2.1,15.2c0,5.3-0.7,10.3-2.1,15.2c-1.4,4.9-3.3,9.4-5.8,13.6
			c-2.5,4.2-5.5,8.1-9,11.5c-3.5,3.5-7.4,6.4-11.6,8.9c-4.3,2.5-8.9,4.4-13.7,5.7c-4.9,1.4-10,2-15.2,2c-5.3,0-10.4-0.7-15.3-2
			c-4.9-1.4-9.4-3.3-13.7-5.7c-4.3-2.5-8.1-5.4-11.6-8.9c-3.5-3.5-6.5-7.3-9-11.5s-4.4-8.8-5.8-13.6
			C827.8,1080.6,827.1,1075.5,827.1,1070.3z M852.7,1070.3c0,4.3,0.9,8.4,2.6,12.2c1.7,3.8,4,7.2,6.9,10c2.9,2.9,6.3,5.1,10.2,6.8
			c3.9,1.6,7.9,2.5,12.3,2.5c4.3,0,8.3-0.8,12.2-2.5c3.9-1.6,7.3-3.9,10.2-6.8c2.9-2.9,5.2-6.2,7-10c1.7-3.8,2.6-7.9,2.6-12.2
			c0-4.3-0.9-8.4-2.6-12.2c-1.7-3.8-4-7.2-7-10c-2.9-2.8-6.3-5.1-10.2-6.8c-3.9-1.7-8-2.5-12.2-2.5c-4.3,0-8.4,0.8-12.3,2.5
			c-3.9,1.7-7.2,3.9-10.2,6.8c-2.9,2.8-5.2,6.2-6.9,10C853.5,1061.9,852.7,1066,852.7,1070.3z"/>
		<path class="st6" d="M982.9,1126.3h-20.1v-111.9h49.5c4.7,0,9.2,0.9,13.4,2.7c4.2,1.8,7.8,4.2,11,7.3c3.1,3.1,5.6,6.7,7.4,10.8
			s2.7,8.6,2.7,13.2c0,1.4-0.2,3.1-0.7,5.1c-0.5,2-1.2,3.9-2.1,5.7c-0.9,1.8-2,3.5-3.2,4.9c-1.3,1.4-2.7,2.3-4.3,2.6
			c2.2,0.3,4.2,1.2,6.1,2.9c1.8,1.6,3.4,3.7,4.8,6.1c1.4,2.4,2.4,5,3.2,7.8s1.2,5.5,1.2,8c0,4.8-0.9,9.4-2.8,13.6
			c-1.8,4.2-4.4,7.9-7.5,11c-3.2,3.1-6.9,5.6-11.2,7.4c-4.3,1.8-8.8,2.7-13.7,2.7L982.9,1126.3z M988.3,1039.9v16.9h24.9
			c1.1,0,2.1-0.2,3.1-0.7c1-0.4,1.8-1,2.6-1.8c0.7-0.8,1.3-1.6,1.7-2.7c0.4-1,0.6-2.1,0.6-3.2c0-1.1-0.2-2.2-0.6-3.3
			c-0.4-1-1-2-1.7-2.7c-0.7-0.8-1.6-1.4-2.6-1.8c-1-0.4-2-0.7-3.1-0.7H988.3z M1017.3,1100.7c1.2,0,2.3-0.2,3.4-0.7
			c1-0.5,2-1.2,2.7-2c0.8-0.9,1.4-1.8,1.9-3c0.5-1.1,0.7-2.3,0.7-3.6c0-1.2-0.2-2.4-0.7-3.5c-0.4-1.1-1.1-2-1.8-2.9
			c-0.8-0.8-1.7-1.5-2.7-2c-1-0.5-2.2-0.7-3.4-0.7h-29.1v18.4H1017.3z"/>
		<path class="st6" d="M1102,1126.3h-25.6v-111.9h25.6V1126.3z"/>
		<path class="st6" d="M1236.4,1126.3H1211l-53.5-77.4v77.4h-25.5v-111.9h25.1c2.5,0,4.7,0.4,6.6,1.1c1.9,0.7,3.4,1.8,4.5,3.4
			l39.1,57.3c0.6,0.8,1.1,1.7,1.5,2.7c0.4,1,0.8,1.9,1.1,2.8s0.5,1.6,0.7,2.2s0.2,1,0.2,1.2v-70.7h25.5V1126.3z"/>
		<path class="st8" d="M1257.5,1070.3c0-5.3,0.7-10.3,2.1-15.2c1.4-4.9,3.3-9.4,5.8-13.6s5.5-8.1,9-11.5c3.5-3.5,7.4-6.4,11.6-8.9
			c4.3-2.5,8.8-4.4,13.7-5.7c4.9-1.4,10-2,15.2-2c5.3,0,10.3,0.7,15.2,2c4.9,1.4,9.5,3.3,13.7,5.7c4.3,2.5,8.1,5.4,11.6,8.9
			c3.5,3.5,6.5,7.3,9,11.5c2.5,4.2,4.4,8.8,5.8,13.6c1.4,4.9,2.1,9.9,2.1,15.2c0,5.3-0.7,10.3-2.1,15.2c-1.4,4.9-3.3,9.4-5.8,13.6
			c-2.5,4.2-5.5,8.1-9,11.5c-3.5,3.5-7.4,6.4-11.6,8.9c-4.3,2.5-8.9,4.4-13.7,5.7c-4.9,1.4-10,2-15.2,2c-5.3,0-10.4-0.7-15.3-2
			c-4.9-1.4-9.4-3.3-13.7-5.7c-4.3-2.5-8.1-5.4-11.6-8.9c-3.5-3.5-6.5-7.3-9-11.5s-4.4-8.8-5.8-13.6
			C1258.2,1080.6,1257.5,1075.5,1257.5,1070.3z M1283,1070.3c0,4.3,0.9,8.4,2.6,12.2c1.7,3.8,4,7.2,7,10c2.9,2.9,6.3,5.1,10.2,6.8
			c3.9,1.6,7.9,2.5,12.3,2.5c4.3,0,8.3-0.8,12.2-2.5c3.9-1.6,7.3-3.9,10.2-6.8c2.9-2.9,5.2-6.2,7-10c1.7-3.8,2.6-7.9,2.6-12.2
			c0-4.3-0.9-8.4-2.6-12.2s-4-7.2-7-10c-2.9-2.8-6.3-5.1-10.2-6.8c-3.9-1.7-8-2.5-12.2-2.5c-4.3,0-8.4,0.8-12.3,2.5
			c-3.9,1.7-7.2,3.9-10.2,6.8c-2.9,2.8-5.2,6.2-7,10C1283.9,1061.9,1283,1066,1283,1070.3z"/>
		<path class="st8" d="M1426.7,1038.9c-1.4,0-2.7,0.1-3.9,0.4c-1.3,0.2-2.4,0.6-3.4,1.1c-1,0.5-1.8,1.2-2.4,2
			c-0.6,0.8-0.9,1.7-0.9,2.8c0,1.7,0.4,3,1.2,3.9c0.8,0.9,2.1,1.8,3.8,2.5c1.7,0.7,3.8,1.4,6.3,2.1c2.5,0.7,5.5,1.6,8.9,2.8
			c4.3,1.5,8.3,3.2,11.8,5.3c3.6,2.1,6.6,4.6,9.1,7.4c2.5,2.8,4.5,6,5.9,9.6c1.4,3.5,2.1,7.5,2.1,11.9c0,5.4-1.1,10.4-3.4,14.9
			s-5.3,8.4-9.2,11.6c-3.8,3.2-8.2,5.7-13.2,7.5s-10.2,2.7-15.5,2.7c-4.6,0-8.9-0.7-13.1-2c-4.1-1.4-7.9-3.2-11.4-5.7
			c-3.5-2.4-6.5-5.3-9.1-8.7c-2.6-3.4-4.6-7-6.1-11l8.1-4.7c1.3-0.7,2.7-1.3,4.2-1.8c1.5-0.4,3-0.7,4.5-0.7c2.2,0,4.3,0.5,6.1,1.4
			s3.6,2,5.3,3c1.7,1.1,3.5,2.1,5.3,3c1.8,0.9,3.9,1.4,6.2,1.4c1.6,0,3.3-0.2,5.1-0.7c1.8-0.5,3.6-1.2,5.2-2.1
			c1.6-0.9,2.9-2.1,3.9-3.5c1-1.4,1.6-3,1.6-4.8c0-1.7-0.5-3.1-1.4-4.2c-1-1.1-2.3-2-3.9-2.9c-1.6-0.8-3.5-1.5-5.7-2.2
			c-2.1-0.7-4.4-1.5-6.7-2.4c-3.9-1.5-7.7-3-11.4-4.8c-3.7-1.7-7.1-3.8-10.1-6.4c-3-2.5-5.4-5.6-7.2-9.2c-1.8-3.6-2.8-8.1-2.8-13.5
			c0-5,1-9.5,3.1-13.5c2.1-3.9,4.8-7.2,8.2-10c3.4-2.7,7.2-4.8,11.6-6.2c4.3-1.4,8.8-2.1,13.4-2.1c3.3,0,6.6,0.6,9.7,1.7
			c3.1,1.1,6.1,2.6,8.9,4.4s5.4,3.8,7.9,6.1c2.4,2.3,4.7,4.6,6.6,7l-7.9,6.6c-1.6,1.4-3.2,2.3-4.9,2.9c-1.7,0.6-3.6,0.9-5.7,0.9
			c-1.7,0-3.1-0.2-4.4-0.6c-1.2-0.4-2.4-0.9-3.5-1.4c-1.1-0.5-2.2-0.9-3.3-1.4C1429.2,1039.1,1428,1038.9,1426.7,1038.9z"/>
		<path class="st6" d="M858.5,1053.3c-3.6-8.7-5.2-17.2-4.5-26.1c0.3-3.2,1.5-5.4,4.7-6.8c16.3-7.5,32.6-8.1,49.2-1
			c1.1,0.5,2.1,1,3.1,1.5c0.2,0.1,0.4,0.5,1,1.3c-2.8,0-5.1,0.1-7.5,0c-14.2-0.7-24.8,5.9-32.4,17
			C868.3,1044.8,862.8,1048,858.5,1053.3z"/>
	</g>
	<g>
		<path class="st0" d="M872.2,1059.8c3-4.7,10.5-8.5,16.1-10.9c-2.3-1.3-5.4-1.9-9.6-1.6c16.9-8.1,32.4-3.9,37.1,6.8
			c5.2,0.8,8.3,3.9,9.6,9c-23.3-12.4-37.8,17.4-3.9,21.6c-0.2,0.1-0.5,0.2-0.7,0.2c-0.4,0.1-0.7,0.2-1.1,0.3c-0.1,0-0.1,0-0.2,0.1
			c-0.1,0-0.1,0-0.2,0.1c-0.1,0-0.3,0.1-0.4,0.1c-0.1,0-0.2,0.1-0.3,0.1l0,0h0c-0.2,0-0.3,0.1-0.5,0.1c-0.1,0-0.1,0-0.2,0.1
			c-0.2,0.1-0.4,0.1-0.7,0.2c0,0,0,0-0.1,0c0,0,0,0,0,0c-0.1,0-0.2,0-0.2,0.1c-0.1,0-0.3,0.1-0.4,0.1c0,0-0.1,0-0.1,0
			c-0.2,0.1-0.5,0.1-0.7,0.2c-0.5,0.1-1,0.2-1.4,0.3c-0.2,0-0.5,0.1-0.7,0.1c-0.6,0.1-1.2,0.2-1.8,0.3c-0.3,0.1-0.7,0.1-1,0.2
			c0,0,0,0-0.1,0c0,0,0,0,0,0c0,0,0,0,0,0c-0.2,0-0.5,0.1-0.7,0.1c-0.2,0-0.4,0.1-0.6,0.1c-0.1,0-0.1,0-0.2,0c-0.1,0-0.2,0-0.3,0
			c-0.1,0-0.2,0-0.3,0c-0.5,0.1-0.9,0.1-1.4,0.2c-0.1,0-0.2,0-0.3,0c-0.2,0-0.4,0-0.7,0.1c-0.1,0-0.3,0-0.4,0c-0.2,0-0.3,0-0.5,0
			c-0.1,0-0.3,0-0.4,0c-0.4,0-0.8,0.1-1.2,0.1c0,0-0.1,0-0.1,0c-0.4,0-0.8,0-1.1,0.1c-0.5,0-1,0-1.6,0c-0.1,0-0.2,0-0.3,0
			c-0.3,0-0.6,0-0.9,0l-0.2,0c-1.3,0-2.6-0.1-3.9-0.2c0,0,0,0,0,0c-0.4,0-0.8-0.1-1.2-0.1c0,0-0.1,0-0.1,0c-0.4,0-0.8-0.1-1.1-0.1
			c-0.1,0-0.1,0-0.2,0c-0.4,0-0.7-0.1-1.1-0.1c-0.1,0-0.2,0-0.3,0c-0.3,0-0.7-0.1-1-0.1c-0.1,0-0.2,0-0.3-0.1
			c-0.3,0-0.6-0.1-0.9-0.2c-0.1,0-0.2,0-0.4-0.1c-0.3-0.1-0.6-0.1-0.9-0.2c-0.1,0-0.3-0.1-0.4-0.1c-0.3-0.1-0.6-0.1-0.9-0.2
			c-0.1,0-0.3-0.1-0.4-0.1c-0.3-0.1-0.6-0.1-0.8-0.2c-0.1,0-0.3-0.1-0.4-0.1c-0.3-0.1-0.6-0.1-0.8-0.2c-0.1,0-0.2-0.1-0.4-0.1
			c-0.3-0.1-0.6-0.2-0.8-0.2c-0.1,0-0.2-0.1-0.4-0.1c-0.3-0.1-0.5-0.2-0.8-0.3c-0.1,0-0.3-0.1-0.4-0.1c-0.3-0.1-0.5-0.2-0.8-0.3
			c-0.4-0.1-0.8-0.3-1.2-0.4c-0.4-0.2-0.8-0.3-1.2-0.5c-0.6-0.2-1.2-0.5-1.8-0.8c-1-0.4-2-0.9-2.9-1.4c-0.2-0.1-0.4-0.2-0.6-0.3
			c-0.4-0.2-0.8-0.4-1.1-0.6c-0.2-0.1-0.4-0.2-0.6-0.3c-0.4-0.2-0.7-0.4-1.1-0.7c0,0,0,0,0,0c-0.5-0.3-1.1-0.7-1.6-1l0,0
			c-0.4-0.2-0.7-0.5-1.1-0.7l0,0c-2.8-2-5.4-4.2-7.8-6.7c-11.4-12.2-17.1-30.6-12.9-53.4c0-0.1,0-0.2,0.1-0.3
			c-0.9,0.7-1.7,1.4-2.5,2.1c-21.9,19.9-19.3,46.4-3.7,62.9c-7.4-2-12.9-6.9-16.9-14c1.5,32,22.3,44.4,43.7,40.6
			c-4.8,3.6-10.1,6.1-16,6.7c16.8,10.8,33.9,8.5,47.5-2.9c-0.5,4.3-3.1,9-8.1,12.8c7.7-1,15.3-3.7,22.4-8
			c12.4-7.5,21.1-18.9,25.6-31.7c1.5-5.2,2.3-10.6,2.5-16.2c0-1.3,0.1-2.6,0-3.8C936.7,1017.2,876,1021.3,872.2,1059.8"/>
		
			<linearGradient id="SVGID_5_" gradientUnits="userSpaceOnUse" x1="828.9026" y1="1087.2461" x2="862.9324" y2="1087.2461" gradientTransform="matrix(0.9932 2.057228e-002 -2.066432e-002 0.9977 22.8352 -20.5133)">
			<stop  offset="0" style="stop-color:#DC6733"/>
			<stop  offset="1" style="stop-color:#FBB71C"/>
		</linearGradient>
		<path class="st9" d="M823.9,1068.9c7,21.1,19.5,25.3,33.3,25.5c-6.4-2.7-11.9-6.7-16.4-11.5C833.4,1080.9,827.9,1076,823.9,1068.9
			"/>
		
			<linearGradient id="SVGID_6_" gradientUnits="userSpaceOnUse" x1="857.7617" y1="1114.9296" x2="890.4993" y2="1114.9296" gradientTransform="matrix(0.9932 2.057228e-002 -2.066432e-002 0.9977 22.8352 -20.5133)">
			<stop  offset="0" style="stop-color:#DC6733"/>
			<stop  offset="1" style="stop-color:#FBB71C"/>
		</linearGradient>
		<path class="st10" d="M851.6,1116.1c12.5,1.8,23.3-2.9,32.8-13c-5.4,3.2-11.1,5.3-16.7,6.3
			C862.8,1113.1,857.6,1115.5,851.6,1116.1"/>
		
			<linearGradient id="SVGID_7_" gradientUnits="userSpaceOnUse" x1="897.584" y1="1117.7888" x2="916.3483" y2="1117.7888" gradientTransform="matrix(0.9932 2.057228e-002 -2.066432e-002 0.9977 22.8352 -20.5133)">
			<stop  offset="0" style="stop-color:#DC6733"/>
			<stop  offset="1" style="stop-color:#FBB71C"/>
		</linearGradient>
		<path class="st11" d="M891,1126c10.8-5.8,17-14.1,19.2-25.3c-3.3,4.9-7,9.1-11.1,12.5C898.6,1117.5,896,1122.2,891,1126"/>
		
			<linearGradient id="SVGID_8_" gradientUnits="userSpaceOnUse" x1="841.095" y1="1059.55" x2="927.4119" y2="1059.55" gradientTransform="matrix(0.9932 2.057228e-002 -2.066432e-002 0.9977 22.8352 -20.5133)">
			<stop  offset="0" style="stop-color:#DC6733"/>
			<stop  offset="1" style="stop-color:#FBB71C"/>
		</linearGradient>
		<path class="st12" d="M847,1017.8c-36.7,54.3,31.1,88.5,74.5,66.9C878.2,1098.5,837.1,1069.5,847,1017.8"/>
		<path class="st5" d="M891.7,1064c2.8-0.6,5.3-0.7,7.4-0.1c-7.3,6.6-8.4,17.1-1.6,24.2c7.7,0.3,15.8-0.8,24-3.4
			c-33.9-4.1-19.4-34,3.9-21.6C916.3,1055.4,905.7,1053.4,891.7,1064"/>
		<path class="st0" d="M904.8,1051.8l4.8,3l3-1.5C910.3,1052,907.6,1051.7,904.8,1051.8"/>
	</g>
</g>
<g id="Layer_2">
</g>
</svg>
