
<?xml version="1.0" encoding="utf-8"?>
<!-- Generator: Adobe Illustrator 26.4.1, SVG Export Plug-In . SVG Version: 6.00 Build 0)  -->
<svg version="1.1" id="Layer_1" xmlns="http://www.w3.org/2000/svg" xmlns:xlink="http://www.w3.org/1999/xlink" x="0px" y="0px"
	 viewBox="0 0 141.7 141.7" style="enable-background:new 0 0 141.7 141.7;" xml:space="preserve">
<style type="text/css">
	.st0{display:none;fill:#ABE4FC;}
	.st1{display:none;fill:#ACE3FC;}
	.st2{fill:url(#SVGID_1_);}
	.st3{fill:url(#SVGID_00000013180433098349338220000003968748830970791599_);}
	.st4{clip-path:url(#SVGID_00000025412186229789866370000013601267102025117617_);}
</style>
<path class="st0" d="M8.4,97.3V122c0,0-0.5,11.2,6.8,11.2s14.2,0,14.2,0s5.7,0,7.1-2.2c0,0,5.7-7.5-6.1-6.8
	c-11.3,0.7-18.5-7.5-14.1-16.3C20,100.4,8,85,8.4,97.3z"/>
<path class="st1" d="M8.4,82.5c0,4.1,1.4,5.8,3.4,6.4c2,0.6,4-1.1,3.6-5.5C15.1,79.1,8.4,78.4,8.4,82.5z"/>
<linearGradient id="SVGID_1_" gradientUnits="userSpaceOnUse" x1="120.1298" y1="119.8432" x2="131.7691" y2="132.0694">
	<stop  offset="0" style="stop-color:#64B9BD"/>
	<stop  offset="0.3733" style="stop-color:#ADF7CB"/>
</linearGradient>
<path class="st2" d="M114,114L114,114c2.5-2.5,6.6-2.5,9,0l15.2,15.2c2.5,2.5,2.5,6.6,0,9l0,0c-2.5,2.5-6.6,2.5-9,0L114,123
	C111.5,120.5,111.5,116.6,114,114z"/>
<linearGradient id="SVGID_00000003827599430997117260000006521201440820258179_" gradientUnits="userSpaceOnUse" x1="58.8652" y1="27.4906" x2="25.0778" y2="93.4565">
	<stop  offset="0" style="stop-color:#4D62FA"/>
	<stop  offset="1" style="stop-color:#EEF0F9"/>
</linearGradient>
<path style="fill:url(#SVGID_00000003827599430997117260000006521201440820258179_);" d="M33.5,64c59.4-31.6,58.2-33.4,64.6-26.8
	l6.4,6.4l-0.4,0.4c-3.3-3.3-4.9-1.2-69.5,33.4C11.5,89.8-14.5,42.5,14,14.2C30.8-2.6,58.2-3,74.9,13.8l9,9
	c-11.9,6.4-11.9,6.2-18.2,0c-11.7-11.7-30.7-11.7-42.4,0l0,0C6.6,39.8,17.1,72.8,33.5,64z"/>
<g>
	<g>
		<defs>
			<path id="SVGID_00000179605773491278368060000015790316950022703531_" d="M99.9,56.2C35.3,90.8,33.7,93.1,30.4,89.8L30,90.2
				l6.4,6.4c6.6,6.6,5.3,4.7,64.6-26.8c16.4-8.8,26.9,24.2,10.2,41c-11.7,11.7-30.7,11.7-42.4,0l0,0c-6.2-6.2-6.2-6.4-18.2,0l9,9
				c16.8,16.8,43.9,16.6,60.9-0.4C149,91,123,43.9,99.9,56.2z"/>
		</defs>
		<clipPath id="SVGID_00000140713197321276560080000018335194459775722168_">
			<use xlink:href="#SVGID_00000179605773491278368060000015790316950022703531_"  style="overflow:visible;"/>
		</clipPath>
		<g style="clip-path:url(#SVGID_00000140713197321276560080000018335194459775722168_);">
			<g>
				<defs>
					<rect id="SVGID_00000059298305024128731910000015664312001762547639_" x="25" y="49.2" width="113" height="88.1"/>
				</defs>
				<clipPath id="SVGID_00000016789943377090358560000010234988066858610094_">
					<use xlink:href="#SVGID_00000059298305024128731910000015664312001762547639_"  style="overflow:visible;"/>
				</clipPath>
				<g style="clip-path:url(#SVGID_00000016789943377090358560000010234988066858610094_);">
					
						<image style="overflow:visible;" width="237" height="184" xlink:href="B70872794231CB6F.jpg"  transform="matrix(0.48 0 0 0.48 24.6732 49.2063)">
					</image>
				</g>
			</g>
		</g>
	</g>
</g>
</svg>
