<?xml version="1.0" encoding="utf-8"?>
<!-- Generator: Adobe Illustrator 26.4.1, SVG Export Plug-In . SVG Version: 6.00 Build 0)  -->
<svg version="1.1" id="Layer_1" xmlns="http://www.w3.org/2000/svg" xmlns:xlink="http://www.w3.org/1999/xlink" x="0px" y="0px"
	 viewBox="0 0 141.7 141.7" style="enable-background:new 0 0 141.7 141.7;" xml:space="preserve">
<style type="text/css">
	.st0{fill:#74B8F9;}
	.st1{fill:#ACE5FC;}
	.st2{fill:#ADE4FC;}
	.st3{fill:#ABE4FC;}
	.st4{fill:#ACE3FC;}
	.st5{fill:#FFFFFF;}
</style>
<path class="st0" d="M140.5,16.6v108.6c0,8.4-6.8,15.1-15.1,15.1H16.7c-1,0-2-0.1-2.9-0.3c-3.9-0.8-7.2-3-9.4-6
	c-1.8-2.5-2.8-5.5-2.8-8.8V16.6c0-7.3,5.2-13.4,12-14.8c1-0.2,2.1-0.3,3.1-0.3h108.6c0.9,0,1.7,0.1,2.5,0.2
	C135,2.8,140.5,9.1,140.5,16.6z"/>
<path class="st1" d="M122.3,140.3L32,140.1c24.2-12.7,35.1-14.4,58.5-8.3c17.2,4.4,32-11.4,16.7-21.6c-21.6-14.4,22.4-49.9,7.3-64.7
	c-4-3.9-17.7-7.4-11-16.1c7.7-10.1-7.3-28-34.6-28h56.3c0.9,0,1.7,0.1,2.5,0.2c13.7,4.7,9.5,30.7,2.8,44.1
	c-18.9,37.7,1.2,55.3,4,67.7C137.3,125.5,109.8,125.1,122.3,140.3z"/>
<path class="st2" d="M26.4,28.2c4.1,12.8,2.2,17.9-4.1,26c-2.9,3.7-6,10.5-8.6,16.7c-1.1,2.8-5.3,2-5.3-1c-0.1-14-0.1-35.1,0.1-50.8
	c0.1-8.5-1-14.6,5.1-17.4c1-0.2,2.1-0.3,3.1-0.3h30C32.3,1.4,22.3,15.4,26.4,28.2z"/>
<path class="st3" d="M8.4,97.3V122c0,0-0.5,11.2,6.8,11.2s14.2,0,14.2,0s5.7,0,7.1-2.2c0,0,5.7-7.5-6.1-6.8
	c-11.3,0.7-18.5-7.5-14.1-16.3C20,100.4,8,85,8.4,97.3z"/>
<path class="st4" d="M8.4,82.5c0,4.1,1.4,5.8,3.4,6.4c2,0.6,4-1.1,3.6-5.5C15.1,79.1,8.4,78.4,8.4,82.5z"/>
<path class="st5" d="M98.5,99L98.5,99c1.7-1.7,4.4-1.7,6,0l10.1,10.1c1.7,1.7,1.7,4.4,0,6l0,0c-1.7,1.7-4.4,1.7-6,0l-10.1-10.1
	C96.8,103.3,96.8,100.7,98.5,99z"/>
<path class="st5" d="M45.1,65.8c39.4-21,38.6-22.1,42.9-17.7l4.3,4.3L92,52.6c-2.2-2.2-3.2-0.8-46.1,22.1
	c-15.4,8.2-32.6-23.2-13.7-42c11.1-11.1,29.3-11.4,40.4-0.3l6,6c-7.9,4.3-7.9,4.1-12,0c-7.8-7.8-20.3-7.8-28.1,0l0,0
	C27.2,49.8,34.2,71.7,45.1,65.8z"/>
<path class="st5" d="M89.1,60.6C46.3,83.6,45.2,85.1,43,82.9l-0.3,0.3l4.3,4.3c4.4,4.4,3.5,3.1,42.9-17.7
	c10.9-5.8,17.9,16.1,6.7,27.2c-7.8,7.8-20.3,7.8-28.1,0l0,0c-4.1-4.1-4.1-4.3-12,0l6,6c11.1,11.1,29.1,11,40.4-0.3
	C121.6,83.7,104.4,52.5,89.1,60.6z"/>
</svg>
